<?xml version="1.0" standalone="no"?>
<!DOCTYPE svg PUBLIC "-//W3C//DTD SVG 20010904//EN"
 "http://www.w3.org/TR/2001/REC-SVG-20010904/DTD/svg10.dtd">
<svg version="1.0" xmlns="http://www.w3.org/2000/svg"
 width="225.000000pt" height="225.000000pt" viewBox="0 0 225.000000 225.000000"
 preserveAspectRatio="xMidYMid meet">
<metadata>
Created by potrace 1.11, written by Peter Selinger 2001-2013
</metadata>
<g transform="translate(0.000000,225.000000) scale(0.100000,-0.100000)"
fill="#000000" stroke="none">
<path d="M645 1506 c-39 -17 -64 -46 -81 -93 -17 -48 -19 -399 -3 -458 21 -76
81 -118 170 -118 63 0 109 21 143 66 15 21 22 47 24 103 l4 74 -56 0 -56 0 0
-44 c0 -89 -40 -128 -95 -92 l-25 16 0 211 c0 126 4 218 10 230 8 13 21 19 46
19 31 0 37 -4 50 -35 7 -19 14 -48 14 -65 0 -30 0 -30 56 -30 l57 0 -6 66 c-5
73 -23 105 -77 142 -38 26 -125 30 -175 8z"/>
<path d="M1370 1468 l0 -47 53 -3 52 -3 3 -287 2 -288 55 0 55 0 0 290 0 290
55 0 55 0 0 48 0 47 -165 0 -165 0 0 -47z"/>
<path d="M951 1493 c0 -10 30 -160 67 -333 l67 -315 57 -3 c53 -3 58 -1 63 20
9 40 135 641 135 645 0 1 -24 3 -54 3 -34 0 -56 -5 -58 -12 -3 -7 -22 -109
-43 -225 -21 -117 -40 -211 -43 -209 -3 4 -81 419 -82 439 0 4 -25 7 -55 7
-46 0 -55 -3 -54 -17z"/>
</g>
</svg>
